<svg xmlns="http://www.w3.org/2000/svg" viewBox="0 0 906.19 893.02">
  <defs>
    <style>
      .cls-1 {
        fill: #737d9b;
      }
    </style>
  </defs>
  <g id="Слой_2" data-name="Слой 2">
    <g id="Слой_1-2" data-name="Слой 1">
      <g>
        <path d="M200.4,213.3c-8,6.07-15.62,12.42-22.85,19-12.94-10.19-27-20.94-33.79-26.17-12.07-9.34-24.58-18.38-37.37-27.42,2.76,5.26,5.66,11,9,17.36,3.19,6.4,6.53,12.66,9.72,18.92s6.53,12.38,9.44,18.08,5.51,10.81,7.69,14.8l-13.31,16c-4.44-1.39-9.74-3.06-15.9-4.87s-12.75-3.9-19.62-6-13.47-4-20.34-6.13-13-3.9-18.62-5.71q16.64,16.38,33.69,31.88c6.18,5.53,19.14,17.14,31.08,28.05a290.15,290.15,0,0,0-14.51,25.83C93.05,316,81.1,304.84,76.49,300.59c-8.63-8.22-17.41-16.44-25.91-24.66S33.73,259.63,26,251.84C18.18,243.9,11.26,236.66,5.35,230l18.12-21.72c4.72,1,10.44,2.34,17,4s13.89,3.61,21.62,5.69,15.47,4.45,23.35,7,15.18,4.6,22.06,6.83c-3.34-6.41-7-13.38-10.74-20.64s-7.4-14.51-10.89-21.63-6.68-13.81-9.59-20.21-5.23-11.54-7-16.09l17.26-20.72c7.61,4.8,16,10.16,25.14,16.38s18.53,12.71,28.16,19.78,19.26,14,28.89,21.06C173.81,193.51,187.61,203.69,200.4,213.3Z"/>
        <g>
          <path d="M248.31,38,221,49.53l50.82,121.05c9-4.21,18.09-8,27.35-11.5Z"/>
          <path d="M487.57,118.29c-2.75-5-5.79-9.81-8.69-14.36s-6.07-9.1-9.1-13.22A137.28,137.28,0,0,0,461,79.49c8-3.63,13.94-8.39,17.89-14.43s6-13.62,5.68-23.05C484,27,478.48,16.2,467.71,9.42S441.76-.52,421.91.07q-8.15.29-18.43,1.43a177.33,177.33,0,0,0-20,3.31l4.33,131.7q14.55-2.25,29.55-3.23l-1.51-46.57,14.57-.4a106.2,106.2,0,0,1,7.94,10.08c2.74,3.69,5.34,7.53,8.09,11.8s5.5,8.38,8.11,12.79c2.17,3.7,4.49,7.54,6.66,11.1,11.86.19,23.44.95,35,2.15C493.81,129.53,490.18,122.84,487.57,118.29ZM447.22,57.6c-4.69,2.89-12.68,4.67-23.82,5l-8.28.2-1.29-36.28,4.85-.47c1.72-.15,3.72-.31,5.86-.33,9.43-.36,16.72.73,21.6,3.4s7.63,7.23,7.83,13.66C454.16,49.68,451.92,54.56,447.22,57.6Z"/>
          <path d="M695.48,83.21,705,59.84,622.73,26.06l-50.47,123A402,402,0,0,1,658.14,185a.14.14,0,0,0,.14.14l11.23-27L610.59,134l10.64-26.15,48.74,20,9.4-22.94L630.63,85l10-24.23Z"/>
          <path d="M852,178.66c-10,2.22-20.1,4.73-30.23,7.38-10.27,2.8-20.82,5.88-31.93,9.25s-23,7-35.21,11.14c-11.4,3.67-29.64,9.95-43.75,14.78a294.71,294.71,0,0,1,24.32,22c27.22-9.94,99.47-34.66,101.32-35.24-1,1.72-56.18,87.61-57.31,89.19v.14a285,285,0,0,1,16.67,29.3c8-12.49,17.07-26.85,23.85-37.62,6.77-11.06,13.12-21.54,19-31.59s11.27-19.67,16.2-29,9.86-18.51,14.5-27.7Z"/>
          <g>
            <path d="M182.39,673,127,725.08c1.42-8,3-16.64,4.35-25.67s2.5-17.77,3.62-26.37,1.8-17,2.36-25.06.7-15,.58-21l-.3-.71a224.63,224.63,0,0,1-14.84-20.42L27.36,695.91l21.46,22.72,60.88-57.38a468.43,468.43,0,0,1-6.24,52.15c-3.08,17.49-6.74,34.57-11.27,51.24L110.58,784l96.64-91.54A303.84,303.84,0,0,1,182.39,673Z"/>
            <path d="M276.9,732.09,232.57,852.45l29.66,11L306.42,743.5C296.35,740.13,286.56,736.32,276.9,732.09Z"/>
            <path d="M479.51,765.77l.62,74.3c-5-6.61-10.27-13.51-15.84-20.54S453,805.46,447.44,798.71s-11.27-12.92-16.67-18.82c-5.11-5.33-9.78-10.09-14-13.87-9-.67-17.89-1.5-26.78-2.75L390.87,893l31.29-.2-.53-83.73a461.15,461.15,0,0,1,34,40.19c10.58,14.23,20.58,28.6,29.73,43.14l26.58-.25L511,762.43C500.62,763.92,490.07,765.13,479.51,765.77Z"/>
            <path d="M703.65,804.52c-1.32-5.61-3.78-10.71-6.33-16.51l-34.58-78.49c-9,5.33-18.23,10.37-27.85,15l32.93,75c16.66,37-34.71,31.47-39.15,31.13l-.57,26.54C637.74,861,716.89,860.77,703.65,804.52Z"/>
            <path d="M866.53,634.66c-12.21-3-23.85-5.95-34.76-8.45s-21.67-4.71-31.71-6.66c-9.76-1.94-21.52-4-31.13-5.52a237.7,237.7,0,0,1-17.7,22.22c4,9.07,9.84,20.53,14.44,29.29q7.14,13.59,15.58,28.42c5.48,9.75,11.55,20.06,18,30.79s13.74,22.45,21.56,35l19.77-26.41c-.3-.56-55.63-87.64-56.81-89.33,2,.39,96.15,26.81,102,28.55l20.33-27.13Q884.85,639.44,866.53,634.66Z"/>
          </g>
        </g>
        <path d="M251.54,383.41H383.86A82.24,82.24,0,0,0,449.93,350,82.28,82.28,0,0,0,516,383.41H648.33a49.79,49.79,0,0,1,49.74,49.74h32.67a82.5,82.5,0,0,0-82.41-82.41H516A49.79,49.79,0,0,1,466.27,301H433.6a49.79,49.79,0,0,1-49.74,49.74H251.54a82.5,82.5,0,0,0-82.41,82.41H201.8A49.79,49.79,0,0,1,251.54,383.41Z"/>
        <path d="M648.32,515.56H516a82.24,82.24,0,0,0-66.07,33.37,82.26,82.26,0,0,0-66.08-33.37H251.53a49.79,49.79,0,0,1-49.73-49.74H169.13a82.5,82.5,0,0,0,82.4,82.41H383.85A49.8,49.8,0,0,1,433.6,598h32.67A49.8,49.8,0,0,1,516,548.23H648.32a82.51,82.51,0,0,0,82.42-82.41H698.07A49.79,49.79,0,0,1,648.32,515.56Z"/>
        <rect x="531.61" y="433.34" width="98.02" height="32.29"/>
        <rect x="270.24" y="433.34" width="98.02" height="32.29"/>
        <path class="cls-1" d="M50.87,535.34H15.58a244.07,244.07,0,0,1,0-171.61H50.72a212.86,212.86,0,0,0-18.14,85.88A208.35,208.35,0,0,0,50.87,535.34Z"/>
        <path class="cls-1" d="M900.18,449.47a244.42,244.42,0,0,1-15.58,85.87H849.45a212.65,212.65,0,0,0,18.15-85.87,208.59,208.59,0,0,0-18.29-85.74H884.6A243.08,243.08,0,0,1,900.18,449.47Z"/>
      </g>
    </g>
  </g>
</svg>
